<svg width="240" height="234" viewBox="0 0 240 234" fill="none" xmlns="http://www.w3.org/2000/svg">
<g clip-path="url(#clip0_2302_75)">
<path d="M42.5 -1.16568e-05H197.5C203.083 -0.00527336 208.612 1.09043 213.77 3.22439C218.929 5.35835 223.616 8.48868 227.564 12.4362C231.511 16.3838 234.642 21.071 236.776 26.2297C238.91 31.3884 240.005 36.9173 240 42.5V191.5C240.005 197.083 238.91 202.612 236.776 207.77C234.642 212.929 231.511 217.616 227.564 221.564C223.616 225.511 218.929 228.642 213.77 230.776C208.612 232.91 203.083 234.005 197.5 234H42.5C36.9174 234.005 31.3885 232.91 26.2297 230.776C21.071 228.642 16.3838 225.511 12.4362 221.564C8.48871 217.616 5.35838 212.929 3.22442 207.77C1.09046 202.612 -0.00524284 197.083 1.88608e-05 191.5V42.5C-0.00524284 36.9173 1.09046 31.3884 3.22442 26.2297C5.35838 21.071 8.48871 16.3838 12.4362 12.4362C16.3838 8.48868 21.071 5.35835 26.2297 3.22439C31.3885 1.09043 36.9174 -0.00527336 42.5 -1.16568e-05V-1.16568e-05Z" fill="#000B1D"/>
<mask id="mask0_2302_75" style="mask-type:luminance" maskUnits="userSpaceOnUse" x="50" y="48" width="140" height="139">
<path fill-rule="evenodd" clip-rule="evenodd" d="M149.276 186.369C151.481 187.226 153.996 187.171 156.222 186.103L185.045 172.265C188.074 170.811 190 167.752 190 164.397V70.5664C190 67.2112 188.074 64.1528 185.045 62.6987L156.222 48.8603C153.301 47.458 149.882 47.8015 147.319 49.6609C146.953 49.9266 146.604 50.2231 146.277 50.55L91.0971 100.777L67.0621 82.574C64.8246 80.8795 61.6951 81.0183 59.6171 82.9043L51.9082 89.9007C49.3664 92.2077 49.3635 96.1974 51.9019 98.5081L72.746 117.481L51.9019 136.455C49.3635 138.765 49.3664 142.755 51.9082 145.062L59.6171 152.058C61.6951 153.945 64.8246 154.083 67.0621 152.389L91.0971 134.185L146.277 184.413C147.15 185.284 148.174 185.941 149.276 186.369ZM154.741 85.8519L113.259 117.481L154.741 149.111V85.8519Z" fill="white"/>
</mask>
<g mask="url(#mask0_2302_75)">
<path d="M185.031 62.2292L156.095 48.3445C152.746 46.7378 148.743 47.4157 146.115 50.0349L51.3904 136.108C48.8426 138.423 48.8455 142.421 51.3968 144.733L59.1341 151.743C61.2199 153.632 64.361 153.771 66.6067 152.074L180.677 65.8315C184.503 62.9383 190 65.6582 190 70.4457V70.1105C190 66.7505 188.068 63.6873 185.031 62.2292Z" fill="#1F9CF0"/>
<path d="M185.031 172.215L156.095 186.1C152.746 187.707 148.743 187.029 146.115 184.409L51.3904 98.3361C48.8426 96.021 48.8455 92.0233 51.3968 89.7119L59.1341 82.7018C61.2199 80.8121 64.361 80.6729 66.6067 82.3708L180.677 168.613C184.503 171.506 190 168.786 190 163.999V164.334C190 167.694 188.068 170.757 185.031 172.215Z" fill="#0389E4"/>
<path d="M155.951 186.103C152.586 187.705 148.566 187.028 145.926 184.413C149.179 187.635 154.741 185.353 154.741 180.797V54.1661C154.741 49.61 149.179 47.3283 145.926 50.55C148.566 47.9353 152.586 47.2577 155.951 48.8603L185.005 62.6988C188.059 64.1529 190 67.2112 190 70.5665V164.397C190 167.752 188.059 170.811 185.005 172.265L155.951 186.103Z" fill="#1F9CF0"/>
<mask id="mask1_2302_75" style="mask-type:luminance" maskUnits="userSpaceOnUse" x="145" y="48" width="45" height="139">
<path d="M155.951 186.103C152.586 187.705 148.566 187.028 145.926 184.413C149.179 187.635 154.741 185.353 154.741 180.797V54.1661C154.741 49.61 149.179 47.3283 145.926 50.55C148.566 47.9353 152.586 47.2577 155.951 48.8603L185.005 62.6988C188.059 64.1529 190 67.2112 190 70.5665V164.397C190 167.752 188.059 170.811 185.005 172.265L155.951 186.103Z" fill="white"/>
</mask>
<g mask="url(#mask1_2302_75)">
</g>
</g>
</g>
<defs>
<clipPath id="clip0_2302_75">
<rect width="240" height="234" fill="white"/>
</clipPath>
</defs>
</svg>
